<svg width="30" height="20" viewBox="0 0 30 20" fill="none" xmlns="http://www.w3.org/2000/svg">
<path id="Vector" d="M15.7124 19.2614L29.2302 2.52068C29.4559 2.24135 29.5818 1.87024 29.5818 1.48433C29.5818 1.09842 29.4559 0.727318 29.2302 0.44799L29.215 0.429966C29.1056 0.294085 28.9739 0.185884 28.8279 0.111948C28.682 0.0380116 28.5248 -0.000118256 28.366 -0.000118256C28.2071 -0.000118256 28.0499 0.0380116 27.904 0.111948C27.758 0.185884 27.6264 0.294085 27.517 0.429966L14.7883 16.1944L2.06481 0.429966C1.95541 0.294085 1.82373 0.185884 1.67778 0.111948C1.53182 0.0380116 1.37465 -0.000118256 1.21581 -0.000118256C1.05697 -0.000118256 0.899799 0.0380116 0.753845 0.111948C0.607891 0.185884 0.47621 0.294085 0.366812 0.429966L0.351536 0.44799C0.125872 0.727318 -1.71661e-05 1.09842 -1.71661e-05 1.48433C-1.71661e-05 1.87024 0.125872 2.24135 0.351536 2.52068L13.8693 19.2614C13.9882 19.4086 14.1312 19.5258 14.2896 19.6059C14.448 19.686 14.6185 19.7273 14.7909 19.7273C14.9632 19.7273 15.1338 19.686 15.2922 19.6059C15.4506 19.5258 15.5936 19.4086 15.7124 19.2614Z" fill="#0093DD" fill-opacity="0.85"/>
</svg>
