<svg width="85" height="54" viewBox="0 0 85 54" fill="none" xmlns="http://www.w3.org/2000/svg">
<path d="M32.7908 4.19919C26.4295 1.94415 17.5381 0.839501 5.63417 0.800283C4.51151 0.788958 3.41087 1.03202 2.47904 1.49706C1.71418 1.88091 1.08808 2.39843 0.655806 3.0041C0.223532 3.60977 -0.00166976 4.28503 9.32076e-06 4.97048V42.3716C9.32076e-06 44.8998 2.4227 46.8071 5.63417 46.8071C18.1473 46.8071 30.6991 47.6752 38.2172 52.9513C38.32 53.0238 38.4493 53.0723 38.589 53.0907C38.7286 53.1091 38.8724 53.0967 39.0026 53.0549C39.1328 53.0131 39.2436 52.9438 39.3212 52.8557C39.3988 52.7676 39.4398 52.6644 39.4391 52.5591V8.48966C39.4394 8.19233 39.3538 7.89841 39.1879 7.62778C39.0221 7.35715 38.7799 7.1161 38.4778 6.92093C36.7557 5.82784 34.8428 4.91233 32.7908 4.19919ZM82.0334 1.49314C81.1011 1.02926 80.0004 0.787551 78.8782 0.800283C66.9743 0.839501 58.0829 1.93892 51.7216 4.19919C49.6697 4.91103 47.7563 5.82475 46.0328 6.91571C45.7314 7.11121 45.4898 7.35235 45.3243 7.62293C45.1588 7.89351 45.0732 8.18726 45.0733 8.48443V52.5565C45.0732 52.6577 45.1133 52.7567 45.1887 52.841C45.2641 52.9253 45.3713 52.9912 45.4969 53.0304C45.6225 53.0696 45.761 53.0805 45.8948 53.0615C46.0287 53.0426 46.152 52.9947 46.2494 52.9239C50.7691 49.5903 58.7009 46.8032 78.8853 46.8045C80.3795 46.8045 81.8126 46.3638 82.8692 45.5793C83.9258 44.7948 84.5194 43.7307 84.5194 42.6213V4.97179C84.5215 4.28498 84.2958 3.60836 83.8622 3.00167C83.4286 2.39499 82.8005 1.87689 82.0334 1.49314Z" fill="white"/>
</svg>
