<svg width="85" height="64" viewBox="0 0 85 64" fill="none" xmlns="http://www.w3.org/2000/svg">
<path d="M24.0765 63.2922C21.0543 63.2922 18.4177 62.36 16.1665 60.4955C13.9153 58.6311 12.5896 56.2292 12.1893 53.29C9.6373 51.9825 7.62253 50.1194 6.14504 47.7005C4.66754 45.2817 3.92879 42.634 3.92879 39.7576C3.92879 36.2928 4.9523 33.2032 6.9993 30.4889C9.0463 27.7745 11.7837 25.8957 15.2115 24.8523L7.95833 17.7919L6.74947 18.9687C6.01072 19.6878 5.0705 20.0473 3.92879 20.0473C2.78709 20.0473 1.84687 19.6878 1.10812 18.9687C0.369374 18.2495 0 17.3343 0 16.223C0 15.1116 0.369374 14.1964 1.10812 13.4772L9.16719 5.63237C9.90593 4.91326 10.8462 4.5537 11.9879 4.5537C13.1296 4.5537 14.0698 4.91326 14.8085 5.63237C15.5473 6.35149 15.9167 7.26672 15.9167 8.37808C15.9167 9.48944 15.5473 10.4047 14.8085 11.1238L13.5997 12.3005L19.241 17.7919L22.4646 8.5742C23.2705 6.15536 24.7319 4.21114 26.8488 2.74154C28.9656 1.27193 31.3323 0.535818 33.9488 0.533203H54.4994C57.1186 0.533203 59.4866 1.26931 61.6035 2.74154C63.7203 4.21376 65.1804 6.15798 65.9836 8.5742L71.4235 24.4601C75.2515 25.1792 78.3919 26.977 80.8445 29.8534C83.2971 32.7299 84.5221 36.0313 84.5194 39.7576C84.5194 42.634 83.7807 45.2817 82.3032 47.7005C80.8257 50.1194 78.8109 51.9825 76.2589 53.29C75.8559 56.2318 74.5289 58.635 72.2777 60.4994C70.0266 62.3639 67.3912 63.2948 64.3718 63.2922C61.8197 63.2922 59.5189 62.5731 57.4692 61.1349C55.4195 59.6966 53.9595 57.8008 53.0891 55.4473H35.3591C34.4861 57.8008 33.0247 59.6966 30.975 61.1349C28.9253 62.5731 26.6258 63.2922 24.0765 63.2922ZM25.6883 24.0678H40.1946V8.37808H33.9488C33.0757 8.37808 32.3034 8.62389 31.6318 9.1155C30.9602 9.60711 30.4565 10.2765 30.1208 11.1238L25.6883 24.0678ZM48.2537 24.0678H62.76L58.3275 11.1238C57.9917 10.2739 57.488 9.60319 56.8164 9.11157C56.1448 8.61996 55.3725 8.37546 54.4994 8.37808H48.2537V24.0678ZM24.0765 55.4473C25.2182 55.4473 26.1758 55.0708 26.9495 54.3177C27.7232 53.5646 28.1087 52.6336 28.106 51.5249C28.106 50.4135 27.7192 49.4813 26.9455 48.7282C26.1718 47.9751 25.2155 47.5998 24.0765 47.6025C22.9348 47.6025 21.9771 47.979 21.2034 48.7321C20.4297 49.4852 20.0442 50.4162 20.0469 51.5249C20.0469 52.6363 20.4338 53.5685 21.2074 54.3216C21.9811 55.0747 22.9374 55.4499 24.0765 55.4473ZM64.3718 55.4473C65.5135 55.4473 66.4712 55.0708 67.2448 54.3177C68.0185 53.5646 68.404 52.6336 68.4013 51.5249C68.4013 50.4135 68.0145 49.4813 67.2408 48.7282C66.4671 47.9751 65.5108 47.5998 64.3718 47.6025C63.2301 47.6025 62.2724 47.979 61.4987 48.7321C60.7251 49.4852 60.3396 50.4162 60.3423 51.5249C60.3423 52.6363 60.7291 53.5685 61.5028 54.3216C62.2764 55.0747 63.2328 55.4499 64.3718 55.4473Z" fill="white"/>
</svg>
