<svg width="74" height="64" viewBox="0 0 74 64" fill="none" xmlns="http://www.w3.org/2000/svg">
<path d="M37.347 63.2922C36.2993 63.2922 35.4217 62.9575 34.7142 62.2881C34.0067 61.6186 33.6518 60.7912 33.6493 59.8056C33.6493 59.3988 33.7417 58.977 33.9266 58.54C34.1115 58.103 34.3888 57.7113 34.7586 57.365L51.8606 41.2394L49.1797 38.7116L32.1702 54.8372C31.8004 55.1859 31.3998 55.4473 30.9684 55.6217C30.537 55.796 30.0748 55.8832 29.5818 55.8832C28.5341 55.8832 27.6553 55.5496 26.9453 54.8825C26.2354 54.2154 25.8816 53.3868 25.8841 52.3966C25.8841 51.8155 25.9765 51.3355 26.1614 50.9566C26.3463 50.5777 26.5928 50.2442 26.9009 49.9559L44.0029 33.8304L41.4145 31.3897L24.3125 47.4281C23.9428 47.7768 23.5422 48.0383 23.1108 48.2126C22.6794 48.387 22.1863 48.4741 21.6317 48.4741C20.6456 48.4741 19.7828 48.1255 19.0433 47.4281C18.3037 46.7308 17.934 45.9173 17.934 44.9875C17.934 44.5226 18.0264 44.0868 18.2113 43.68C18.3962 43.2733 18.6735 42.8955 19.0433 42.5469L36.1453 26.4213L33.4644 23.9807L16.4549 40.1063C16.1467 40.3968 15.777 40.6292 15.3456 40.8036C14.9142 40.9779 14.3903 41.0651 13.774 41.0651C12.7263 41.0651 11.8475 40.7304 11.1375 40.0609C10.4276 39.3915 10.0738 38.564 10.0763 37.5785C10.0763 37.1136 10.1687 36.6778 10.3536 36.271C10.5385 35.8642 10.8158 35.4865 11.1856 35.1378L31.8004 15.7L45.6669 28.8619C46.3448 29.5011 47.146 30.0102 48.0704 30.3891C48.9949 30.7679 49.9193 30.9562 50.8437 30.9539C52.8158 30.9539 54.5414 30.2996 56.0205 28.9909C57.4996 27.6823 58.2392 26.0122 58.2392 23.9807C58.2392 23.1671 58.0851 22.3245 57.777 21.4529C57.4688 20.5812 56.9142 19.7677 56.113 19.0123L39.5657 3.40967C40.6133 2.47991 41.7843 1.76748 43.0785 1.27238C44.3727 0.777282 45.6669 0.530895 46.9611 0.533219C48.5635 0.533219 50.0425 0.780769 51.3984 1.27587C52.7542 1.77097 53.9868 2.54035 55.0961 3.584L70.719 18.4021C71.8283 19.4481 72.6455 20.6103 73.1706 21.8887C73.6957 23.1671 73.957 24.6489 73.9545 26.3341C73.9545 27.4963 73.6772 28.6725 73.1225 29.8626C72.5679 31.0527 71.7667 32.1428 70.719 33.133L39.9354 62.2462C39.4424 62.7111 39.011 63.0017 38.6412 63.1179C38.2715 63.2341 37.8401 63.2922 37.347 63.2922ZM5.63903 35.3993L3.23551 33.133C2.18782 32.2033 1.38665 31.0992 0.831988 29.8208C0.277329 28.5423 0 27.2058 0 25.8111C0 24.3003 0.308144 22.9056 0.924431 21.6272C1.54072 20.3488 2.31108 19.2738 3.23551 18.4021L18.8584 3.584C19.8445 2.65424 21.0154 1.91276 22.3712 1.35955C23.7271 0.806337 25.0521 0.530895 26.3463 0.533219C28.0103 0.533219 29.4894 0.751714 30.7836 1.1887C32.0778 1.62569 33.3412 2.42412 34.5737 3.584L53.5246 21.4529C53.8943 21.8015 54.1717 22.1793 54.3566 22.586C54.5414 22.9928 54.6339 23.4286 54.6339 23.8935C54.6339 24.8233 54.2641 25.6368 53.5246 26.3341C52.785 27.0315 51.9222 27.3801 50.9362 27.3801C50.3815 27.3801 49.9193 27.3069 49.5495 27.1605C49.1797 27.014 48.7792 26.7386 48.3478 26.3341L31.708 10.8187L5.63903 35.3993Z" fill="white"/>
</svg>
