<svg width="43" height="35" viewBox="0 0 43 35" fill="none" xmlns="http://www.w3.org/2000/svg">
<path id="Vector" d="M38.0337 30.1053H33.8078V11.2895L21.1299 19.3534L8.45194 11.2895V30.1053H4.22597V4.30076H6.76156L21.1299 13.4399L35.4982 4.30076H38.0337M38.0337 0H4.22597C1.88056 0 0 1.91384 0 4.30076V30.1053C0 31.2459 0.445235 32.3399 1.23776 33.1464C2.03028 33.9529 3.10517 34.4061 4.22597 34.4061H38.0337C39.1545 34.4061 40.2294 33.9529 41.022 33.1464C41.8145 32.3399 42.2597 31.2459 42.2597 30.1053V4.30076C42.2597 3.16013 41.8145 2.06621 41.022 1.25966C40.2294 0.453114 39.1545 0 38.0337 0Z" fill="white"/>
</svg>
