<svg width="85" height="84" viewBox="0 0 85 84" fill="none" xmlns="http://www.w3.org/2000/svg">
<path d="M83.6956 11.9728L72.4256 0.815611C71.9482 0.343632 71.3155 0.0569244 70.6427 0.00761483C69.9698 -0.0416947 69.3014 0.149668 68.759 0.546911C68.2166 0.944155 67.8362 1.5209 67.687 2.1723C67.5377 2.82369 67.6295 3.50648 67.9457 4.09652L46.6665 25.1592C38.6402 21.0241 29.6523 21.3693 24.2075 26.7561C22.7706 28.1847 21.645 29.8899 20.9004 31.7664C20.6718 32.2751 20.2987 32.707 19.8267 33.0097C19.3546 33.3124 18.8038 33.4728 18.2414 33.4713C13.103 33.6422 8.64076 35.4657 5.33372 38.7396C1.07928 42.9619 -0.709832 49.0217 0.255164 55.8101C1.19198 62.3057 4.59764 68.7385 9.85581 73.9161C15.114 79.0938 21.5978 82.4793 28.1696 83.4067C29.3473 83.581 30.536 83.6718 31.7267 83.6787C37.1222 83.6787 41.8803 81.8552 45.3775 78.393C48.6846 75.119 50.5265 70.7015 50.6991 65.6145C50.6985 65.0565 50.862 64.5105 51.1698 64.043C51.4775 63.5755 51.916 63.2069 52.4318 62.9821C54.3275 62.2454 56.0501 61.131 57.4928 59.7081C62.9341 54.3178 63.2828 45.413 59.1058 37.474L80.3815 16.4078C80.9775 16.7208 81.6672 16.8117 82.3252 16.664C82.9832 16.5162 83.5657 16.1396 83.967 15.6027C84.3683 15.0657 84.5616 14.404 84.5117 13.7379C84.4619 13.0717 84.1723 12.4454 83.6956 11.9728ZM30.163 68.9128C29.6347 69.4355 28.9183 69.7292 28.1714 69.7292C27.4244 69.7292 26.7081 69.4355 26.1797 68.9128L14.9097 57.7556C14.3815 57.2323 14.0849 56.5226 14.0853 55.7827C14.0856 55.0429 14.3828 54.3335 14.9115 53.8105C15.4402 53.2876 16.157 52.994 16.9043 52.9943C17.6517 52.9947 18.3683 53.2889 18.8965 53.8123L30.1665 64.9695C30.694 65.493 30.99 66.2024 30.9893 66.9419C30.9887 67.6813 30.6914 68.3903 30.163 68.9128ZM45.0042 52.9232C43.6252 54.2889 41.8681 55.2191 39.9551 55.5961C38.0421 55.9731 36.0591 55.78 34.257 55.0412C32.4548 54.3024 30.9145 53.0511 29.8307 51.4456C28.747 49.8401 28.1686 47.9524 28.1686 46.0214C28.1686 44.0904 28.747 42.2028 29.8307 40.5972C30.9145 38.9917 32.4548 37.7404 34.257 37.0016C36.0591 36.2628 38.0421 36.0697 39.9551 36.4467C41.8681 36.8238 43.6252 37.7539 45.0042 39.1196C46.8527 40.9504 47.8911 43.4329 47.8911 46.0214C47.8911 48.6099 46.8527 51.0925 45.0042 52.9232ZM55.9432 32.7008C55.2798 31.8889 54.5745 31.1115 53.83 30.3717C53.0824 29.6339 52.2959 28.9356 51.4739 28.2797L59.1622 20.6789L63.6314 25.1034L55.9432 32.7008ZM67.6147 21.1566L63.1489 16.7355L71.8409 8.12706L76.3102 12.5516L67.6147 21.1566Z" fill="white"/>
</svg>
