<svg width="43" height="35" viewBox="0 0 43 35" fill="none" xmlns="http://www.w3.org/2000/svg">
<path id="Vector" d="M29.4803 22.0726L28.4121 22.9895C28.4121 22.9895 25.8695 25.1672 18.9319 19.221C11.9943 13.2747 14.5369 11.097 14.5369 11.097L15.2084 10.5182C16.8682 9.0974 17.0255 6.81444 15.577 5.14674L12.6188 1.74051C10.8251 -0.323866 7.3622 -0.597093 5.30792 1.1637L1.62196 4.32099C0.605381 5.19532 -0.075466 6.32465 0.00670516 7.57947C0.218002 10.7914 1.90368 17.699 11.3041 25.7582C21.2749 34.3031 30.6307 34.6431 34.4552 34.3355C35.6666 34.2383 36.7184 33.7081 37.566 32.9794L40.8998 30.1217C43.1536 28.1929 42.5197 24.8838 39.6367 23.5339L35.1525 21.4311C33.2602 20.5446 30.9594 20.8057 29.4803 22.0726Z" fill="white"/>
</svg>
